<svg width="386" height="73" viewBox="0 0 386 73" fill="none" xmlns="http://www.w3.org/2000/svg">
<path d="M0 0V73H73.0739V0H0ZM14.8305 53.4705H63.3666L63.3749 38.8227L43.9439 38.7622L43.9604 34.0482L63.3657 34.0756V19.6642H14.8305V14.6808H68.2203V58.3192H14.8305V53.4705ZM14.8305 24.5129H58.513V29.2443L39.1242 29.182L39.0729 43.5935L58.513 43.6558V48.6218H14.8305V24.5129ZM9.97688 9.8321V63.1679H68.2203V68.1513H4.85361V4.84871H68.2203V9.8321H9.97688Z" fill="#007B75"/>
<path d="M19.819 43.6385H34.245V29.2271H19.819V43.6385ZM24.6726 34.0758H29.3914V38.7898H24.6726V34.0758Z" fill="#007B75"/>
<path d="M104.411 26.4067C104.506 26.4067 104.601 26.4241 104.697 26.4599C104.792 26.4956 104.883 26.557 104.97 26.644L106.565 28.3216C105.866 29.2342 104.991 29.9214 103.94 30.385C102.888 30.8486 101.643 31.0813 100.207 31.0813C98.8892 31.0813 97.7089 30.8578 96.6651 30.4088C95.6214 29.9608 94.7354 29.3423 94.009 28.5534C93.2826 27.7646 92.725 26.8291 92.3361 25.7461C91.9472 24.6631 91.7528 23.4876 91.7528 22.2195C91.7528 20.9267 91.9628 19.7393 92.3838 18.6563C92.8039 17.5733 93.3954 16.6406 94.1576 15.8554C94.9198 15.0702 95.8323 14.4599 96.8962 14.0238C97.9602 13.5868 99.1314 13.3696 100.409 13.3696C101.06 13.3696 101.674 13.4274 102.249 13.5419C102.825 13.6573 103.363 13.8158 103.863 14.0183C104.363 14.2208 104.823 14.4645 105.243 14.7495C105.664 15.0353 106.037 15.3441 106.362 15.6776L105.005 17.4973C104.917 17.6081 104.815 17.7098 104.696 17.7996C104.577 17.8912 104.41 17.9371 104.196 17.9371C104.053 17.9371 103.918 17.905 103.791 17.8418C103.664 17.7785 103.529 17.7007 103.386 17.61C103.243 17.5183 103.087 17.4194 102.916 17.3122C102.745 17.205 102.543 17.1051 102.308 17.0144C102.075 16.9228 101.8 16.8458 101.487 16.7817C101.174 16.7185 100.806 16.6864 100.386 16.6864C99.7184 16.6864 99.1094 16.8092 98.5581 17.0547C98.006 17.3012 97.53 17.6594 97.1292 18.1313C96.7275 18.6041 96.4184 19.1822 96.2001 19.8685C95.9818 20.5547 95.8718 21.3372 95.8718 22.2177C95.8718 23.1055 95.9928 23.8944 96.235 24.5843C96.4771 25.2743 96.8064 25.8551 97.2237 26.327C97.6401 26.7998 98.1262 27.158 98.682 27.4045C99.2378 27.65 99.833 27.7728 100.468 27.7728C100.833 27.7728 101.167 27.7554 101.467 27.7197C101.769 27.683 102.051 27.6244 102.313 27.541C102.575 27.4586 102.821 27.3468 103.051 27.2084C103.282 27.0701 103.515 26.8932 103.754 26.6798C103.849 26.6 103.952 26.535 104.064 26.4828C104.177 26.4333 104.292 26.4067 104.411 26.4067Z" fill="#1D1D1B"/>
<path d="M123.438 13.5602L116.46 28.3693C116.19 28.9246 115.901 29.3763 115.591 29.7254C115.282 30.0735 114.95 30.3493 114.597 30.5518C114.243 30.7543 113.868 30.8926 113.471 30.9687C113.074 31.0438 112.649 31.0814 112.197 31.0814C111.498 31.0814 111.002 31.0191 110.709 30.8972C110.415 30.7744 110.268 30.5939 110.268 30.3557V27.9176H111.268C111.419 27.9176 111.579 27.9057 111.751 27.8819C111.921 27.8581 112.094 27.804 112.269 27.7216C112.443 27.6382 112.616 27.5145 112.787 27.3523C112.958 27.1901 113.114 26.9693 113.257 26.6926L113.805 25.6225L106.84 13.5602H110.626C110.976 13.5602 111.252 13.6427 111.454 13.804C111.657 13.9661 111.825 14.175 111.961 14.4288L114.531 19.5909C114.746 19.9794 114.937 20.3688 115.104 20.7563C115.271 21.1448 115.416 21.5379 115.544 21.9346C115.663 21.5379 115.802 21.1457 115.961 20.7563C116.119 20.3688 116.294 19.9794 116.485 19.5909L118.795 14.4288C118.843 14.3262 118.908 14.2227 118.992 14.1191C119.075 14.0165 119.17 13.9231 119.278 13.8397C119.385 13.7572 119.508 13.6894 119.646 13.6372C119.785 13.5859 119.939 13.5593 120.105 13.5593H123.438V13.5602Z" fill="#1D1D1B"/>
<path d="M141.012 27.9058V33.8411C141.012 34.1737 140.894 34.4394 140.66 34.6383C140.427 34.8362 140.122 34.936 139.75 34.936H137.321V30.8918H125.677V33.8411C125.677 34.1737 125.559 34.4394 125.326 34.6383C125.091 34.8362 124.787 34.936 124.414 34.936H121.985V27.9067H123.938C124.136 27.7876 124.339 27.5988 124.545 27.3414C124.752 27.0839 124.952 26.7247 125.147 26.2648C125.341 25.8048 125.525 25.2221 125.7 24.5166C125.874 23.8111 126.033 22.9471 126.177 21.9237C126.32 20.9012 126.44 19.7009 126.54 18.3247C126.639 16.9495 126.712 15.3607 126.76 13.5603H138.441V27.9058H141.012ZM134.392 27.9058V16.5463H130.558C130.463 18.0443 130.34 19.3894 130.189 20.5787C130.038 21.7679 129.864 22.8225 129.666 23.7424C129.467 24.6623 129.247 25.4649 129.005 26.1512C128.762 26.8374 128.503 27.422 128.226 27.9058H134.392Z" fill="#1D1D1B"/>
<path d="M147.869 16.6535V20.6978H153.323V23.6719H147.869V27.7995H154.989V30.8927H143.821V13.5603H154.989V16.6535H147.869Z" fill="#1D1D1B"/>
<path d="M164.42 20.4953C165.619 20.4953 166.636 20.6263 167.475 20.8883C168.312 21.1504 168.992 21.5013 169.516 21.9411C170.04 22.3809 170.42 22.8921 170.66 23.4749C170.897 24.0576 171.017 24.6706 171.017 25.3128C171.017 26.1457 170.868 26.9052 170.57 27.5915C170.272 28.2768 169.842 28.8642 169.279 29.3516C168.715 29.839 168.024 30.2183 167.207 30.4877C166.389 30.7571 165.46 30.8918 164.42 30.8918H158.063V13.5603H170.35V16.5701H162.086V20.4944H164.42V20.4953ZM164.42 27.8581C164.952 27.8581 165.389 27.7986 165.73 27.6804C166.071 27.5613 166.338 27.4009 166.534 27.1984C166.728 26.996 166.862 26.7678 166.932 26.5149C167.004 26.2611 167.04 25.9954 167.04 25.7169C167.04 25.3999 167.004 25.1067 166.932 24.8373C166.861 24.5679 166.728 24.3352 166.534 24.141C166.339 23.9467 166.071 23.7965 165.73 23.6893C165.388 23.5821 164.951 23.528 164.42 23.528H162.086V27.8572H164.42V27.8581Z" fill="#1D1D1B"/>
<path d="M189.007 13.5603V30.8909H184.958V23.5637H177.91V30.8909H173.862V13.5603H177.91V20.805H184.958V13.5603H189.007Z" fill="#1D1D1B"/>
<path d="M209.987 22.2204C209.987 23.4739 209.769 24.6393 209.337 25.7168C208.905 26.7952 208.296 27.7334 207.51 28.5305C206.724 29.3277 205.778 29.9525 204.67 30.4042C203.563 30.8569 202.334 31.0823 200.985 31.0823C199.636 31.0823 198.405 30.8559 197.294 30.4042C196.183 29.9525 195.232 29.3277 194.443 28.5305C193.653 27.7334 193.042 26.7961 192.609 25.7168C192.176 24.6384 191.961 23.4729 191.961 22.2204C191.961 20.967 192.176 19.8016 192.609 18.7232C193.042 17.6448 193.653 16.7093 194.443 15.9158C195.232 15.1233 196.183 14.5003 197.294 14.0476C198.405 13.5959 199.635 13.3696 200.985 13.3696C202.335 13.3696 203.563 13.5969 204.67 14.0531C205.778 14.5094 206.724 15.1334 207.51 15.9268C208.296 16.7194 208.905 17.6558 209.337 18.7342C209.769 19.8135 209.987 20.9753 209.987 22.2204ZM205.866 22.2204C205.866 21.3638 205.754 20.5923 205.533 19.907C205.31 19.2207 204.991 18.6398 204.574 18.1643C204.157 17.6878 203.647 17.3241 203.044 17.0703C202.44 16.8165 201.754 16.6891 200.983 16.6891C200.205 16.6891 199.513 16.8165 198.906 17.0703C198.299 17.3241 197.787 17.6878 197.37 18.1643C196.953 18.6398 196.634 19.2207 196.411 19.907C196.188 20.5932 196.078 21.3647 196.078 22.2204C196.078 23.0845 196.189 23.8596 196.411 24.5449C196.634 25.2312 196.953 25.8121 197.37 26.2885C197.787 26.764 198.299 27.1269 198.906 27.3761C199.513 27.6262 200.205 27.7508 200.983 27.7508C201.753 27.7508 202.439 27.6262 203.044 27.3761C203.647 27.1269 204.157 26.7631 204.574 26.2885C204.991 25.8121 205.31 25.2312 205.533 24.5449C205.755 23.8596 205.866 23.0845 205.866 22.2204Z" fill="#1D1D1B"/>
<path d="M212.51 22.1729H218.94V25.1469H212.51V22.1729Z" fill="#1D1D1B"/>
<path d="M221.202 15.6786C221.527 15.3451 221.899 15.0354 222.315 14.7505C222.733 14.4655 223.19 14.2218 223.69 14.0193C224.19 13.8168 224.73 13.6583 225.31 13.5429C225.889 13.4283 226.504 13.3706 227.155 13.3706C228.434 13.3706 229.604 13.5878 230.668 14.0248C231.732 14.4609 232.644 15.0711 233.407 15.8563C234.169 16.6416 234.76 17.5743 235.181 18.6573C235.601 19.7403 235.812 20.9277 235.812 22.2205C235.812 23.4886 235.618 24.6641 235.229 25.7471C234.84 26.8301 234.282 27.7656 233.556 28.5544C232.83 29.3433 231.945 29.9627 230.901 30.4098C229.857 30.8578 228.676 31.0823 227.358 31.0823C225.922 31.0823 224.676 30.8496 223.625 30.386C222.573 29.9224 221.698 29.2343 220.999 28.3226L222.594 26.645C222.682 26.558 222.772 26.4966 222.867 26.4608C222.963 26.4251 223.058 26.4077 223.154 26.4077C223.273 26.4077 223.387 26.4343 223.498 26.4856C223.61 26.5378 223.713 26.6029 223.808 26.6826C224.046 26.896 224.281 27.0729 224.511 27.2112C224.741 27.3496 224.987 27.4614 225.249 27.5438C225.512 27.6272 225.791 27.6868 226.088 27.7225C226.387 27.7582 226.722 27.7756 227.095 27.7756C227.643 27.7756 228.162 27.684 228.655 27.5017C229.147 27.3193 229.591 27.05 229.989 26.6936C230.386 26.3362 230.723 25.8964 231.001 25.3733C231.279 24.8501 231.473 24.2472 231.584 23.5646H224.202V20.6858H231.56C231.442 20.0435 231.252 19.4746 230.995 18.9789C230.738 18.4832 230.419 18.0654 230.042 17.7236C229.664 17.3828 229.234 17.1253 228.75 16.9512C228.266 16.7772 227.742 16.6892 227.179 16.6892C226.543 16.6892 226.03 16.7552 225.637 16.8862C225.244 17.0172 224.914 17.1592 224.649 17.3141C224.382 17.468 224.156 17.6119 223.97 17.742C223.783 17.8721 223.583 17.938 223.368 17.938C223.154 17.938 222.988 17.8922 222.868 17.8006C222.75 17.7099 222.646 17.6082 222.559 17.4982L221.202 15.6786Z" fill="#1D1D1B"/>
<path d="M254.314 30.8908H250.635C250.278 30.8908 249.977 30.7955 249.731 30.6049C249.484 30.4153 249.258 30.1413 249.052 29.7849L246.171 24.3727C245.98 24.0236 245.766 23.7937 245.528 23.6828C245.289 23.5719 244.987 23.516 244.622 23.516H242.812V30.8908H238.788V13.5602H242.812V20.5786H244.289C244.59 20.5786 244.85 20.5227 245.068 20.4118C245.286 20.301 245.486 20.0985 245.67 19.8044L248.813 14.5828C248.995 14.2813 249.217 14.0358 249.48 13.8452C249.742 13.6546 250.058 13.5593 250.433 13.5593H253.885L249.658 20.3752C249.46 20.6922 249.221 20.9533 248.944 21.1604C248.666 21.3666 248.361 21.537 248.027 21.6717C248.559 21.8146 249.011 22.0501 249.384 22.3799C249.758 22.7088 250.107 23.1624 250.433 23.7423L254.314 30.8908Z" fill="#1D1D1B"/>
<path d="M267.59 26.4067C267.685 26.4067 267.781 26.4241 267.876 26.4599C267.972 26.4956 268.062 26.557 268.149 26.644L269.744 28.3216C269.046 29.2342 268.171 29.9214 267.119 30.385C266.068 30.8486 264.823 31.0813 263.387 31.0813C262.069 31.0813 260.888 30.8578 259.845 30.4088C258.801 29.9608 257.915 29.3423 257.188 28.5534C256.462 27.7646 255.904 26.8291 255.516 25.7461C255.127 24.6631 254.932 23.4876 254.932 22.2195C254.932 20.9267 255.142 19.7393 255.563 18.6563C255.983 17.5733 256.575 16.6406 257.337 15.8554C258.099 15.0702 259.012 14.4599 260.076 14.0238C261.14 13.5868 262.311 13.3696 263.588 13.3696C264.24 13.3696 264.853 13.4274 265.428 13.5419C266.004 13.6573 266.543 13.8158 267.042 14.0183C267.542 14.2208 268.003 14.4645 268.423 14.7495C268.844 15.0353 269.216 15.3441 269.542 15.6776L268.184 17.4973C268.096 17.6081 267.994 17.7098 267.875 17.7996C267.756 17.8912 267.589 17.9371 267.375 17.9371C267.232 17.9371 267.097 17.905 266.971 17.8418C266.843 17.7785 266.709 17.7007 266.566 17.61C266.422 17.5183 266.267 17.4194 266.096 17.3122C265.924 17.205 265.723 17.1051 265.488 17.0144C265.254 16.9228 264.98 16.8458 264.666 16.7817C264.353 16.7185 263.986 16.6864 263.565 16.6864C262.898 16.6864 262.289 16.8092 261.738 17.0547C261.185 17.3012 260.709 17.6594 260.309 18.1313C259.907 18.6041 259.598 19.1822 259.38 19.8685C259.161 20.5547 259.051 21.3372 259.051 22.2177C259.051 23.1055 259.172 23.8944 259.414 24.5843C259.657 25.2743 259.986 25.8551 260.403 26.327C260.82 26.7998 261.306 27.158 261.861 27.4045C262.417 27.65 263.012 27.7728 263.647 27.7728C264.012 27.7728 264.346 27.7554 264.647 27.7197C264.949 27.683 265.23 27.6244 265.492 27.541C265.755 27.4586 266.001 27.3468 266.231 27.2084C266.461 27.0701 266.695 26.8932 266.933 26.6798C267.029 26.6 267.131 26.535 267.243 26.4828C267.355 26.4333 267.471 26.4067 267.59 26.4067Z" fill="#1D1D1B"/>
<path d="M286.712 30.8909H282.664V16.5463H276.151V30.8909H272.102V13.5603H286.711V30.8909H286.712Z" fill="#1D1D1B"/>
<path d="M294.713 16.6535V20.6978H300.167V23.6719H294.713V27.7995H301.833V30.8927H290.665V13.5603H301.833V16.6535H294.713Z" fill="#1D1D1B"/>
<path d="M311.026 13.5603C312.248 13.5603 313.298 13.7051 314.175 13.9946C315.052 14.2841 315.775 14.6827 316.342 15.1903C316.909 15.6979 317.328 16.2962 317.598 16.9861C317.868 17.676 318.003 18.4218 318.003 19.2226C318.003 20.0866 317.863 20.8801 317.585 21.6012C317.307 22.3232 316.883 22.9407 316.311 23.4565C315.739 23.9724 315.015 24.3746 314.138 24.6641C313.261 24.9537 312.223 25.0984 311.025 25.0984H308.929V30.8909H304.906V13.5603H311.026ZM311.026 22.0657C312.073 22.0657 312.827 21.8156 313.287 21.3162C313.748 20.8169 313.978 20.1187 313.978 19.2226C313.978 18.8259 313.918 18.4649 313.8 18.1396C313.681 17.8144 313.5 17.5349 313.258 17.3013C313.015 17.0676 312.71 16.8871 312.341 16.7598C311.972 16.6333 311.533 16.5701 311.026 16.5701H308.93V22.0648H311.026V22.0657Z" fill="#1D1D1B"/>
<path d="M333.113 16.7488H328.231V30.8918H324.206V16.7488H319.325V13.5603H333.113V16.7488Z" fill="#1D1D1B"/>
<path d="M350.889 13.5603V30.8909H346.841V23.5637H339.792V30.8909H335.744V13.5603H339.792V20.805H346.841V13.5603H350.889Z" fill="#1D1D1B"/>
<path d="M371.868 22.2204C371.868 23.4739 371.651 24.6393 371.219 25.7168C370.786 26.7952 370.177 27.7334 369.392 28.5305C368.606 29.3277 367.66 29.9525 366.552 30.4042C365.445 30.8569 364.216 31.0823 362.866 31.0823C361.517 31.0823 360.287 30.8559 359.176 30.4042C358.064 29.9525 357.114 29.3277 356.324 28.5305C355.535 27.7334 354.924 26.7961 354.491 25.7168C354.058 24.6384 353.843 23.4729 353.843 22.2204C353.843 20.967 354.058 19.8016 354.491 18.7232C354.924 17.6448 355.535 16.7093 356.324 15.9158C357.114 15.1233 358.064 14.5003 359.176 14.0476C360.287 13.5959 361.516 13.3696 362.866 13.3696C364.217 13.3696 365.445 13.5969 366.552 14.0531C367.66 14.5094 368.606 15.1334 369.392 15.9268C370.177 16.7194 370.786 17.6558 371.219 18.7342C371.651 19.8135 371.868 20.9753 371.868 22.2204ZM367.749 22.2204C367.749 21.3638 367.637 20.5923 367.416 19.907C367.193 19.2207 366.874 18.6398 366.456 18.1643C366.04 17.6878 365.53 17.3241 364.926 17.0703C364.323 16.8165 363.637 16.6891 362.866 16.6891C362.088 16.6891 361.395 16.8165 360.788 17.0703C360.181 17.3241 359.669 17.6878 359.253 18.1643C358.836 18.6398 358.516 19.2207 358.294 19.907C358.072 20.5932 357.961 21.3647 357.961 22.2204C357.961 23.0845 358.072 23.8596 358.294 24.5449C358.517 25.2312 358.836 25.8121 359.253 26.2885C359.669 26.764 360.182 27.1269 360.788 27.3761C361.395 27.6262 362.088 27.7508 362.866 27.7508C363.636 27.7508 364.322 27.6262 364.926 27.3761C365.53 27.1269 366.04 26.7631 366.456 26.2885C366.874 25.8121 367.193 25.2312 367.416 24.5449C367.637 23.8596 367.749 23.0845 367.749 22.2204Z" fill="#1D1D1B"/>
<path d="M378.88 16.6535V20.6978H384.334V23.6719H378.88V27.7995H386V30.8927H374.832V13.5603H386V16.6535H378.88Z" fill="#1D1D1B"/>
<path d="M108.233 59.4377H105.114C104.765 59.4377 104.482 59.3562 104.268 59.194C104.054 59.0318 103.891 58.8239 103.78 58.5701L102.757 55.5483H96.1607L95.1371 58.5701C95.0491 58.7927 94.8932 58.9924 94.6666 59.1702C94.4401 59.3489 94.1604 59.4377 93.8274 59.4377H90.6843L97.3998 42.1072H101.52L108.233 59.4377ZM101.84 52.8124L100.232 48.0673C100.113 47.7658 99.9853 47.4113 99.8504 47.0026C99.7156 46.5949 99.5808 46.1523 99.446 45.6759C99.3277 46.1597 99.2002 46.6086 99.0653 47.02C98.9296 47.4323 98.803 47.7897 98.6838 48.0911L97.0889 52.8124H101.84Z" fill="#1D1D1B"/>
<path d="M121.08 45.0932H114.198V59.4377H110.149V42.1072H121.079V45.0932H121.08Z" fill="#1D1D1B"/>
<path d="M127.76 45.2004V49.2446H133.213V52.2187H127.76V56.3464H134.88V59.4396H123.711V42.1072H134.88V45.2004H127.76Z" fill="#1D1D1B"/>
<path d="M153.098 42.1072V59.4377H149.05V52.1106H142.001V59.4377H137.953V42.1072H142.001V49.3518H149.05V42.1072H153.098Z" fill="#1D1D1B"/>
<path d="M169.517 45.2957H164.635V59.4387H160.611V45.2957H155.729V42.1072H169.517V45.2957Z" fill="#1D1D1B"/>
<path d="M183.435 54.9538C183.53 54.9538 183.626 54.9712 183.721 55.007C183.817 55.0427 183.907 55.1041 183.994 55.1911L185.589 56.8688C184.891 57.7813 184.016 58.4685 182.964 58.9321C181.912 59.3957 180.668 59.6285 179.232 59.6285C177.914 59.6285 176.733 59.4049 175.69 58.9559C174.646 58.5079 173.76 57.8894 173.033 57.1006C172.307 56.3117 171.749 55.3762 171.361 54.2932C170.972 53.2102 170.777 52.0347 170.777 50.7667C170.777 49.4738 170.987 48.2864 171.408 47.2034C171.828 46.1204 172.42 45.1877 173.182 44.4025C173.944 43.6173 174.857 43.0071 175.921 42.5709C176.985 42.1339 178.156 41.9167 179.433 41.9167C180.085 41.9167 180.697 41.9745 181.273 42.089C181.849 42.2044 182.388 42.363 182.887 42.5654C183.387 42.7679 183.848 43.0116 184.268 43.2966C184.689 43.5825 185.061 43.8912 185.387 44.2247L184.029 46.0444C183.941 46.1552 183.839 46.2569 183.72 46.3467C183.601 46.4384 183.434 46.4842 183.22 46.4842C183.077 46.4842 182.942 46.4521 182.816 46.3889C182.688 46.3257 182.554 46.2478 182.411 46.1571C182.267 46.0655 182.111 45.9665 181.941 45.8593C181.769 45.7521 181.568 45.6522 181.333 45.5615C181.099 45.4699 180.825 45.3929 180.511 45.3288C180.198 45.2656 179.831 45.2335 179.41 45.2335C178.743 45.2335 178.134 45.3563 177.583 45.6018C177.03 45.8483 176.554 46.2066 176.154 46.6784C175.752 47.1512 175.443 47.7293 175.225 48.4156C175.006 49.1019 174.896 49.8843 174.896 50.7648C174.896 51.6526 175.017 52.4415 175.259 53.1314C175.502 53.8214 175.831 54.4023 176.248 54.8741C176.664 55.3469 177.151 55.7051 177.706 55.9516C178.262 56.1972 178.857 56.3199 179.492 56.3199C179.857 56.3199 180.191 56.3025 180.492 56.2668C180.794 56.2302 181.075 56.1715 181.337 56.0881C181.6 56.0057 181.846 55.8939 182.076 55.7555C182.306 55.6172 182.54 55.4404 182.778 55.2269C182.874 55.1472 182.976 55.0821 183.088 55.0299C183.201 54.9804 183.317 54.9538 183.435 54.9538Z" fill="#1D1D1B"/>
<path d="M200.414 45.2957H195.532V59.4387H191.508V45.2957H186.627V42.1072H200.414V45.2957Z" fill="#1D1D1B"/>
<path d="M209.427 42.1072C210.626 42.1072 211.646 42.219 212.487 42.4407C213.329 42.6624 214.015 42.9758 214.548 43.3798C215.079 43.7839 215.467 44.2759 215.708 44.855C215.95 45.4331 216.071 46.08 216.071 46.7937C216.071 47.1822 216.015 47.5569 215.904 47.9179C215.792 48.2789 215.618 48.6161 215.381 48.9285C215.143 49.2419 214.837 49.5296 214.463 49.7916C214.09 50.0537 213.642 50.2791 213.118 50.4696C214.262 50.7473 215.106 51.1953 215.654 51.8128C216.202 52.4313 216.476 53.2321 216.476 54.2161C216.476 54.9537 216.333 55.639 216.047 56.274C215.761 56.9089 215.343 57.4623 214.791 57.9333C214.24 58.4051 213.559 58.7735 212.749 59.0392C211.94 59.3058 211.015 59.4377 209.975 59.4377H203.046V42.1072H209.427ZM207.069 45.117V49.3986H209.165C209.609 49.3986 210.01 49.3665 210.367 49.3033C210.725 49.2401 211.029 49.1292 211.278 48.9707C211.528 48.8122 211.719 48.5941 211.849 48.3165C211.981 48.0389 212.047 47.6907 212.047 47.2702C212.047 46.8578 211.994 46.5143 211.892 46.2412C211.789 45.9682 211.629 45.7483 211.416 45.5815C211.201 45.4148 210.929 45.2957 210.6 45.2242C210.271 45.1527 209.879 45.117 209.427 45.117H207.069ZM209.903 56.405C210.435 56.405 210.87 56.3372 211.207 56.2025C211.545 56.0678 211.809 55.8937 211.999 55.6793C212.19 55.4659 212.321 55.224 212.392 54.9537C212.465 54.6843 212.5 54.4113 212.5 54.1327C212.5 53.8157 212.458 53.5299 212.374 53.277C212.292 53.0232 212.148 52.8088 211.946 52.6338C211.743 52.4597 211.476 52.325 211.142 52.2297C210.809 52.1344 210.388 52.0868 209.879 52.0868H207.069V56.4041H209.903V56.405Z" fill="#1D1D1B"/>
<path d="M236.61 50.7676C236.61 52.021 236.393 53.1864 235.961 54.2639C235.528 55.3423 234.919 56.2805 234.134 57.0777C233.348 57.8748 232.401 58.4997 231.293 58.9514C230.186 59.404 228.957 59.6294 227.608 59.6294C226.259 59.6294 225.028 59.4031 223.918 58.9514C222.806 58.4997 221.856 57.8748 221.066 57.0777C220.276 56.2805 219.666 55.3432 219.233 54.2639C218.8 53.1855 218.584 52.0201 218.584 50.7676C218.584 49.5142 218.8 48.3487 219.233 47.2703C219.666 46.1919 220.276 45.2564 221.066 44.463C221.856 43.6704 222.806 43.0474 223.918 42.5948C225.028 42.1431 226.258 41.9167 227.608 41.9167C228.958 41.9167 230.186 42.144 231.293 42.6003C232.401 43.0565 233.348 43.6805 234.134 44.474C234.919 45.2665 235.528 46.2029 235.961 47.2813C236.394 48.3606 236.61 49.5224 236.61 50.7676ZM232.49 50.7676C232.49 49.9109 232.378 49.1394 232.157 48.4541C231.934 47.7678 231.615 47.1869 231.198 46.7114C230.782 46.235 230.272 45.8712 229.668 45.6174C229.065 45.3636 228.379 45.2363 227.607 45.2363C226.83 45.2363 226.137 45.3636 225.53 45.6174C224.923 45.8712 224.411 46.235 223.995 46.7114C223.577 47.1869 223.258 47.7678 223.036 48.4541C222.814 49.1403 222.703 49.9118 222.703 50.7676C222.703 51.6316 222.814 52.4067 223.036 53.092C223.259 53.7783 223.578 54.3592 223.995 54.8356C224.411 55.3112 224.924 55.674 225.53 55.9232C226.137 56.1733 226.83 56.298 227.607 56.298C228.378 56.298 229.064 56.1733 229.668 55.9232C230.272 55.674 230.782 55.3103 231.198 54.8356C231.615 54.3592 231.934 53.7783 232.157 53.092C232.379 52.4067 232.49 51.6316 232.49 50.7676Z" fill="#1D1D1B"/>
</svg>
