<svg xmlns="http://www.w3.org/2000/svg" width="24" height="24" viewBox="0 0 24 24">
    <path fill-rule="evenodd"
          d="M15 8V18.69c0 .162.12.296.276.309a.303.303 0 0 0 .323-.283L15.972 14H20v-1h-3.949l.158-2H20v-1h-3.712l.158-2H21.4a.6.6 0 0 1 .6.6v13.8a.6.6 0 0 1-.6.6H10v-4.8a.2.2 0 0 0-.2-.2H7.2a.2.2 0 0 0-.2.2V23H2.6a.6.6 0 0 1-.6-.6v-20c0-.22.18-.4.4-.4H3v-.6c0-.22.18-.4.4-.4h10.2c.22 0 .4.18.4.4V2h.6c.22 0 .4.18.4.4V8zm1.605-2H19.6c.22 0 .4.18.4.4V7h-3.474l.079-1zM5.5 9v6h2V9h-2zm4 0v6h2V9h-2zm-4-5v3h2V4h-2zm4 0v3h2V4h-2zM17 16v1h3v-1h-3z" fill="#fff"></path>
</svg>