<svg width="60" height="68" viewBox="0 0 60 68" fill="none" xmlns="http://www.w3.org/2000/svg">
<g clip-path="url(#clip0)">
<g filter="url(#filter0_f)">
<path d="M30.51 56.523C30.5041 56.6516 30.4488 56.7729 30.3557 56.8618C30.2625 56.9506 30.1387 57.0001 30.01 57C29.72 57 29.5 56.79 29.49 56.523C29.345 53.355 27.734 51.306 24.658 50.376C14.53 47.968 7 38.863 7 28C7 15.297 17.297 5 30 5C42.703 5 53 15.297 53 28C53 38.863 45.47 47.968 35.342 50.376C32.266 51.306 30.655 53.356 30.512 56.523H30.51Z" fill="#FF3333"/>
</g>
<path d="M30.51 56.523C30.5041 56.6516 30.4488 56.7729 30.3557 56.8618C30.2625 56.9506 30.1387 57.0001 30.01 57C29.72 57 29.5 56.79 29.49 56.523C29.345 53.355 27.734 51.306 24.658 50.376C14.53 47.968 7 38.863 7 28C7 15.297 17.297 5 30 5C42.703 5 53 15.297 53 28C53 38.863 45.47 47.968 35.342 50.376C32.266 51.306 30.655 53.356 30.512 56.523H30.51Z" fill="#FF3333"/>
<path d="M30 68C27.79 68 26 66.21 26 64C26 61.79 27.79 60 30 60C32.21 60 34 61.79 34 64C34 66.21 32.21 68 30 68Z" fill="white"/>
<path fill-rule="evenodd" clip-rule="evenodd" d="M29.9997 66C30.266 66.006 30.5309 65.9588 30.7787 65.861C31.0266 65.7633 31.2524 65.617 31.4429 65.4308C31.6334 65.2446 31.7848 65.0222 31.8882 64.7766C31.9916 64.5311 32.0449 64.2674 32.0449 64.001C32.045 63.7346 31.9918 63.4708 31.8886 63.2253C31.7853 62.9797 31.634 62.7572 31.4436 62.5709C31.2532 62.3846 31.0274 62.2382 30.7797 62.1403C30.5319 62.0425 30.267 61.9951 30.0007 62.001C29.4781 62.0125 28.9809 62.2282 28.6153 62.6018C28.2498 62.9754 28.0451 63.4773 28.0449 64C28.0448 64.5227 28.2493 65.0246 28.6146 65.3984C28.98 65.7722 29.4772 65.9882 29.9997 66V66Z" fill="#FF3333"/>
<path fill-rule="evenodd" clip-rule="evenodd" d="M33 24V34.69C33 34.852 33.12 34.986 33.276 34.999C33.3158 35.0017 33.3558 34.9965 33.3936 34.9838C33.4314 34.971 33.4663 34.9509 33.4963 34.9246C33.5263 34.8983 33.5508 34.8663 33.5685 34.8305C33.5861 34.7947 33.5965 34.7558 33.599 34.716L33.972 30H38V29H34.051L34.209 27H38V26H34.288L34.446 24H39.4C39.4788 24 39.5568 24.0155 39.6296 24.0457C39.7024 24.0758 39.7685 24.12 39.8243 24.1757C39.88 24.2315 39.9242 24.2976 39.9543 24.3704C39.9845 24.4432 40 24.5212 40 24.6V38.4C40 38.4788 39.9845 38.5568 39.9543 38.6296C39.9242 38.7024 39.88 38.7685 39.8243 38.8243C39.7685 38.88 39.7024 38.9242 39.6296 38.9543C39.5568 38.9845 39.4788 39 39.4 39H28V34.2C28 34.147 27.9789 34.0961 27.9414 34.0586C27.9039 34.0211 27.853 34 27.8 34H25.2C25.147 34 25.0961 34.0211 25.0586 34.0586C25.0211 34.0961 25 34.147 25 34.2V39H20.6C20.4409 39 20.2883 38.9368 20.1757 38.8243C20.0632 38.7117 20 38.5591 20 38.4V18.4C20 18.18 20.18 18 20.4 18H21V17.4C21 17.18 21.18 17 21.4 17H31.6C31.82 17 32 17.18 32 17.4V18H32.6C32.82 18 33 18.18 33 18.4V24ZM34.605 22H37.6C37.82 22 38 22.18 38 22.4V23H34.526L34.605 22ZM23.5 25V31H25.5V25H23.5ZM27.5 25V31H29.5V25H27.5ZM23.5 20V23H25.5V20H23.5ZM27.5 20V23H29.5V20H27.5ZM35 32V33H38V32H35Z" fill="white"/>
</g>
<defs>
<filter id="filter0_f" x="1" y="-1" width="58" height="64" filterUnits="userSpaceOnUse" color-interpolation-filters="sRGB">
<feFlood flood-opacity="0" result="BackgroundImageFix"/>
<feBlend mode="normal" in="SourceGraphic" in2="BackgroundImageFix" result="shape"/>
<feGaussianBlur stdDeviation="3" result="effect1_foregroundBlur"/>
</filter>
<clipPath id="clip0">
<rect width="60" height="68" fill="white"/>
</clipPath>
</defs>
</svg>
