<svg width="32" height="32" viewBox="0 0 32 32" fill="none" xmlns="http://www.w3.org/2000/svg">
<path d="M27.4995 24.9953V5L26.7366 5.06396C23.6768 5.31689 20.6756 6.04833 17.8426 7.2319L16.4996 7.78951V27.7058L17.4776 27.2993C20.4093 26.0796 23.5132 25.3249 26.6775 25.0622L27.4995 24.9953Z" fill="#007B75"/>
<path d="M30 7.95605H28.5V25.4558C28.501 25.7166 28.301 25.9343 28.041 25.9558L26.7605 26.0608C26.3909 26.0913 26.0222 26.1292 25.6551 26.1743C25.5359 26.1887 25.4175 26.2078 25.2991 26.2244C25.0516 26.2573 24.8045 26.2908 24.5581 26.3298C24.4146 26.3528 24.272 26.3796 24.129 26.4048C23.9085 26.4434 23.6876 26.4817 23.4676 26.5251C23.3174 26.5552 23.1675 26.5889 23.0145 26.6213C22.805 26.6658 22.5955 26.7112 22.3875 26.7607C22.2315 26.7978 22.076 26.8372 21.921 26.8767C21.7186 26.9268 21.5172 26.9807 21.316 27.0369C21.1595 27.0798 21.003 27.1252 20.847 27.1711C20.6471 27.2302 20.45 27.2903 20.2525 27.3533C20.098 27.4033 19.9432 27.4534 19.7892 27.5032C19.5914 27.5698 19.3946 27.6387 19.1986 27.7097C19.0487 27.7641 18.8986 27.8188 18.7452 27.8762C18.6766 27.9023 18.6085 27.9302 18.5402 27.9568H30V7.95605Z" fill="#007B75"/>
<path d="M5.26317 5.06396L4.50024 5V24.9968L5.38768 25.0722C8.55 25.3366 11.6513 26.0959 14.578 27.3222L15.5001 27.7058V7.78951L14.1586 7.23239C11.3253 6.04857 8.32368 5.31689 5.26317 5.06396Z" fill="#007B75"/>
<path d="M2 7.95605V27.9558H13.4679C13.4063 27.9316 13.3448 27.9057 13.2828 27.8828C13.1397 27.8284 12.9955 27.7764 12.8514 27.7239C12.6483 27.6501 12.4454 27.5784 12.2408 27.5098C12.0929 27.4597 11.9445 27.4111 11.7958 27.3638C11.5929 27.2971 11.3893 27.2344 11.1854 27.1758C11.0353 27.1318 10.8854 27.0876 10.7355 27.0456C10.5299 26.9888 10.3239 26.9348 10.1173 26.8818C9.96743 26.8433 9.81728 26.8047 9.66396 26.7688C9.45449 26.7188 9.2438 26.6729 9.03336 26.6277C8.88346 26.5952 8.73331 26.5623 8.58341 26.5322C8.3654 26.4893 8.1464 26.4507 7.92741 26.4124C7.78386 26.3872 7.64031 26.3623 7.49651 26.3367C7.25481 26.2983 7.01239 26.2659 6.76996 26.2332C6.6474 26.2168 6.52582 26.1973 6.40351 26.1834C6.03681 26.1389 5.67012 26.1011 5.30342 26.0698L3.95749 25.9558C3.69798 25.9336 3.499 25.7161 3.49998 25.4558V7.95605H2Z" fill="#007B75"/>
</svg>
