<svg width="64" height="64" viewBox="0 0 64 64" fill="none" xmlns="http://www.w3.org/2000/svg">
<path d="M15.4094 40.8661L8.6441 34.1008C5.85209 31.3088 3.94899 27.7528 3.17462 23.881L2.59997 21.0077C1.59462 15.981 3.05283 10.7765 6.52362 7.00394V7.00394M18.7717 44.2283L32.1401 56.5129C34.9983 59.1393 38.6312 60.7678 42.4936 61.1541L43.1799 61.2227C48.0996 61.7147 52.9803 59.9725 56.4764 56.4764V56.4764M6.52362 7.00394L10.6355 2.53447C11.4055 1.69754 12.7175 1.67022 13.5216 2.47437L25.5228 14.4756C26.3038 15.2566 26.3038 16.5229 25.5228 17.304L20.1859 22.6409C19.4048 23.422 19.4048 24.6883 20.1859 25.4693L35.1689 40.4524C35.9342 41.2177 37.1695 41.2354 37.9564 40.4922L38.9449 39.5586M6.52362 7.00394L18.7717 19.252M56.4764 56.4764L60.6056 52.3472C61.3788 51.5739 61.3877 50.3229 60.6253 49.5388L46.5631 35.0748C45.801 34.2909 44.5507 34.2643 43.7559 35.0149L38.9449 39.5586M56.4764 56.4764L38.9449 39.5586" stroke="#007B75" stroke-width="3"/>
<path d="M42.9474 24.1786L46.2632 29L50.0526 24.1786H56C58.2091 24.1786 60 22.3877 60 20.1786V6C60 3.79086 58.2091 2 56 2H37C34.7909 2 33 3.79086 33 6V20.1786C33 22.3877 34.7909 24.1786 37 24.1786H42.9474Z" stroke="#007B75" stroke-width="3"/>
<path d="M47.1584 16.1298C47.1584 13.3956 50 12.3944 50 9.96826C50 7.29185 48.1176 5.94402 45.9457 6.00178C43.7919 6.05955 42 7.34962 42 10.0838H44.2262C44.3167 9.08255 45.1312 8.58192 45.9276 8.58192C47.2851 8.58192 47.6471 9.85274 47.2127 10.8732C46.4887 12.5869 44.7692 13.1068 44.7692 16.1298H47.1584ZM46 20C46.8507 20 47.4661 19.4031 47.4661 18.5366C47.4661 17.6317 46.8507 17.054 46 17.054C45.1493 17.054 44.4977 17.6317 44.4977 18.5366C44.4977 19.4031 45.1493 20 46 20Z" fill="#007B75"/>
</svg>
