<svg width="16" height="16" viewBox="0 0 16 16" fill="none" xmlns="http://www.w3.org/2000/svg">
<g clip-path="url(#clip0)">
<path d="M15.1201 1.58008C14.5337 0.987116 13.827 0.678709 13.0738 0.688584C12.3691 0.697709 11.6777 0.997147 11.127 1.53174L11.1218 1.53677L3.97254 8.80536C3.25719 9.52821 3.257 10.5776 3.9721 11.3007C4.31885 11.6513 4.76119 11.8444 5.21772 11.8444C5.21779 11.8444 5.21788 11.8444 5.21794 11.8444C5.68 11.8443 6.12525 11.6512 6.47385 11.2986L11.4152 6.2504L10.5219 5.37605L5.58275 10.422C5.47288 10.5332 5.34329 10.5944 5.21775 10.5944C5.09425 10.5944 4.97413 10.5363 4.86079 10.4217C4.53179 10.0891 4.75132 9.7954 4.86232 9.68327L12.0024 2.42399C12.6848 1.76574 13.559 1.77924 14.2314 2.45908C15.0292 3.26574 14.8065 4.21274 14.2319 4.7934L6.1046 13.1871C5.54613 13.7511 4.83954 14.0617 4.11469 14.0618C4.11457 14.0618 4.11444 14.0618 4.11432 14.0618C3.38972 14.0618 2.70229 13.754 2.12641 13.1717C0.778379 11.8088 1.15488 10.208 2.12622 9.22568L8.28547 3.0678L7.40172 2.18387L1.2411 8.34308L1.23875 8.34546C0.466223 9.12611 0.026723 10.1106 0.00122303 11.1173C-0.0259957 12.1909 0.401567 13.2053 1.23772 14.0507C2.04204 14.864 3.06357 15.3118 4.11441 15.3118C4.11454 15.3118 4.11482 15.3118 4.11494 15.3117C5.17729 15.3116 6.20038 14.8684 6.99575 14.0637L15.1231 5.66993C16.2933 4.48474 16.2923 2.7653 15.1201 1.58008Z" fill="#007B75"/>
</g>
<defs>
<clipPath id="clip0">
<rect width="16" height="16" fill="white"/>
</clipPath>
</defs>
</svg>
