<svg width="32" height="32" viewBox="0 0 32 32" fill="none" xmlns="http://www.w3.org/2000/svg">
<path d="M23.6696 6.62309C22.2405 6.62309 21.0901 5.43791 21.0901 4.04357V0H5.22956C4.74154 0 4.32324 0.418301 4.32324 0.906318V31.0937C4.32324 31.5817 4.74154 32 5.22956 32H26.8069C27.2949 32 27.6784 31.5817 27.6784 31.0937V6.62309H23.6696Z" fill="#007B75"/>
<path d="M9.83044 13.769H8.99384V15.6863H8.95898C9.8653 15.6863 11.1899 15.8605 11.1899 14.7102C11.1899 13.9433 10.667 13.769 9.83044 13.769Z" fill="#007B75"/>
<path d="M15.6178 13.8737H14.7812V18.0915C15.3041 18.0915 16.1756 18.1264 16.5939 17.9869C17.7791 17.5686 17.7094 15.268 17.291 14.5708C16.9076 13.9434 16.3499 13.8737 15.6178 13.8737Z" fill="#007B75"/>
<path d="M23.6695 5.08934H26.5976L22.5889 1.08063V4.00873C22.5889 4.63618 23.0769 5.08934 23.6695 5.08934Z" fill="#007B75"/>
<path d="M16.3536 21.9535C16.1583 22.1488 15.8417 22.1488 15.6464 21.9535L12.4645 18.7716C12.2692 18.5763 12.2692 18.2597 12.4645 18.0645C12.6597 17.8692 12.9763 17.8692 13.1716 18.0645L16 20.8929L18.8284 18.0645C19.0237 17.8692 19.3403 17.8692 19.5355 18.0645C19.7308 18.2597 19.7308 18.5763 19.5355 18.7716L16.3536 21.9535ZM16.5 8.79999L16.5 21.6L15.5 21.6L15.5 8.79999L16.5 8.79999Z" fill="#fff"/>
<line x1="12.7998" y1="24.3" x2="19.1998" y2="24.3" stroke="#fff"/>
</svg>
