<svg width="92" height="20" viewBox="0 0 92 20" fill="none" xmlns="http://www.w3.org/2000/svg">
<path fill-rule="evenodd" clip-rule="evenodd" d="M18.7451 15.8485C19.744 12.704 20.6953 10.6181 21.71 7.59998C22.0748 6.55708 22.376 5.97235 22.2809 5.37183C22.1065 4.40792 21.4564 4.13934 20.8221 4.96105C20.727 5.11904 20.616 5.24544 20.5368 5.38763C20.1563 6.01975 19.8232 6.68347 19.3792 7.45762C18.0474 9.74897 17.0485 12.7672 16.3508 13.7943C15.4471 15.2164 14.1944 14.9478 13.8139 13.5099C12.7992 14.2525 11.5782 13.4625 11.6257 12.1667C11.6574 11.0132 11.9588 9.54359 12.1173 8.35849C12.3234 6.90466 12.7356 3.20704 12.7039 1.21589C12.6722 0.963093 12.6563 0.789301 12.6088 0.599717C12.371 -0.0798027 11.6733 -0.158803 11.0868 0.251976C10.7537 0.473314 10.4683 0.963093 10.3257 1.59521C10.0719 2.51172 9.99259 3.50722 9.86577 4.50273C9.7865 5.16644 8.6925 11.0922 8.4387 11.5662C7.64606 13.178 4.85533 10.4759 2.77831 9.85956C0.479166 9.2276 -0.947746 10.4127 0.748819 11.424C1.87453 12.1193 5.63229 15.0426 6.56775 16.0381C6.8057 16.2753 6.85327 16.2911 7.0752 16.4964C7.40811 16.8282 7.61435 17.1286 7.97896 17.4445C10.0719 19.3566 13.7663 20.2573 16.5569 18.8194C17.1278 18.5191 17.2546 18.3927 17.6511 17.9819C18.3169 17.3024 18.4596 16.7018 18.7451 15.8485Z" fill="#1A3C40"/>
<path fill-rule="evenodd" clip-rule="evenodd" d="M53.6264 19.5141H56.6549L57.9075 13.7149C59.5723 13.5095 59.6199 14.663 59.8735 15.9113L60.5395 19.5141H63.6156L62.8703 15.8323C62.696 14.9316 62.2836 14.2048 61.9507 13.8413C61.7446 13.6359 61.5701 13.5411 61.3323 13.3515C61.8239 13.0511 62.2044 12.9248 62.585 12.6878C63.2032 12.3242 63.79 11.8186 64.3767 10.7916C65.0901 9.54312 65.4548 7.6311 64.7413 6.22468C64.0278 4.77084 62.8386 4.48646 60.7456 4.48646C58.8271 4.48646 56.9244 4.45486 55.0059 4.48646L54.546 6.85679H56.1792L53.6264 19.5141ZM58.4149 11.3445L59.3345 6.9042C60.6663 6.85679 62.8703 6.52501 61.9031 9.43252C61.2055 11.5025 59.8894 11.3761 58.4149 11.3445Z" fill="#1A3C40"/>
<path fill-rule="evenodd" clip-rule="evenodd" d="M82.0715 19.5143H84.767L85.7183 15.3111C86.8759 15.2161 86.971 15.8166 87.2246 17.0493L87.7162 19.5301L90.5068 19.4986L90.1262 17.6023C89.714 15.8166 89.8725 15.4849 88.8259 14.3628L91.997 9.76448L89.1114 9.79608C88.3979 10.76 87.7478 11.961 87.1137 12.9565H86.2099C86.1623 12.119 87.7004 6.16166 87.9223 4.50244H83.4669L83.0387 6.87278H84.656C84.4024 8.89538 82.1032 18.4872 82.0715 19.5143Z" fill="#1A3C40"/>
<path fill-rule="evenodd" clip-rule="evenodd" d="M31.1903 15.6112H28.6851L28.3522 17.1125H26.3227L28.9548 4.50244L24.1187 4.56564L23.5639 6.88857H25.3237L22.6282 19.5143L30.3658 19.4827L31.1903 15.6112Z" fill="#1A3C40"/>
<path fill-rule="evenodd" clip-rule="evenodd" d="M66.4219 19.7513C66.6597 19.8461 66.9294 19.9093 67.294 19.9567C69.7833 20.2095 71.0359 19.293 71.797 18.2975C72.4946 17.3968 72.7166 16.7173 73.0021 15.627C73.4143 14.1416 73.6362 12.4351 72.7007 11.1551C71.7018 9.79602 69.6724 9.36945 67.7537 10.1596C66.2475 10.7917 65.1375 12.0716 64.5827 13.8098C64.2972 14.7105 64.1228 15.7534 64.2179 16.7489C64.3449 18.1711 65.0424 19.2298 66.4219 19.7513ZM67.2623 16.5277C67.0879 15.9114 67.183 15.232 67.4208 14.3313C67.6744 13.3673 68.388 11.7556 69.5931 12.1664C70.5444 12.4507 70.592 15.2478 69.5931 16.7015C68.832 17.8551 67.6586 18.0289 67.2623 16.5277Z" fill="#1A3C40"/>
<path fill-rule="evenodd" clip-rule="evenodd" d="M32.7443 18.9612C34.3616 20.9048 37.5328 19.5774 38.9439 19.0876L38.4842 17.0492C37.2315 17.4758 35.3922 18.4081 34.9008 16.5119C36.9778 16.6857 38.7854 16.0219 39.8159 14.2363C42.3846 9.7486 35.9948 8.13677 33.2676 11.7396C32.3163 12.988 31.8406 14.3155 31.8089 16.0535C31.8089 16.0377 31.6662 17.6496 32.7443 18.9612ZM34.9801 14.5841C35.1386 13.5412 35.6459 12.3559 36.5972 12.1663C37.3585 12.0083 37.6597 12.5615 37.501 13.2092C37.4376 13.4938 37.3266 13.7782 37.0729 14.0309C36.5972 14.4893 35.852 14.6157 34.9801 14.5841Z" fill="#1A3C40"/>
<path fill-rule="evenodd" clip-rule="evenodd" d="M46.8876 13.9203C47.2999 15.5321 49.6465 15.7533 49.932 16.496C50.4711 17.855 47.9659 18.0288 46.523 16.8752L45.5558 18.9137C46.301 19.8618 48.6 20.1146 50.0588 19.8144C51.8188 19.4509 52.8177 18.0288 52.8969 16.2906C52.9445 15.5005 52.7701 15.0896 52.0724 14.4576C51.4542 13.9203 50.7406 13.7623 50.1698 13.3829C49.8685 13.1776 49.7576 13.1302 49.7893 12.751C49.8368 12.0557 50.4076 12.0873 51.2479 12.1189L51.0735 13.1618L53.0397 13.1302L54.324 9.19556L51.9139 9.22715L51.7871 9.81173C50.5821 9.73273 49.1867 9.70113 48.2354 10.4438C48.2354 10.4596 46.3803 11.9609 46.8876 13.9203Z" fill="#1A3C40"/>
<path fill-rule="evenodd" clip-rule="evenodd" d="M75.1107 19.1823C75.3643 19.4192 75.745 19.6406 76.3157 19.7986C76.9499 20.004 77.6952 20.0356 78.4087 19.925C78.8685 19.8776 79.2015 19.767 79.5027 19.688C79.8833 19.593 80.2004 19.4508 80.5809 19.3086C80.7396 19.2297 80.9139 19.1823 81.0883 19.0717L80.6284 17.0491C79.7565 17.3335 76.6329 18.9137 76.9658 15.3108C77.1719 13.2407 77.8062 11.866 80.1211 12.1504L79.9468 13.1459L81.897 13.1143L83.1971 9.17969H80.8188L80.6443 9.87486C77.9013 9.59047 76.4266 10.3648 75.2692 11.9134C74.3179 13.1617 73.8897 14.9473 74.0167 16.7645C74.0801 17.681 74.3813 18.5659 75.1107 19.1823Z" fill="#1A3C40"/>
<path fill-rule="evenodd" clip-rule="evenodd" d="M40.6561 19.5141H43.304L44.8579 12.0873L46.3484 12.1189L47.0936 9.81174H45.3812L45.9678 6.88843H43.6054L42.7333 9.81174H41.3221L40.8622 12.0873H42.0673L40.6561 19.5141Z" fill="#1A3C40"/>
<path fill-rule="evenodd" clip-rule="evenodd" d="M13.9237 12.3718C14.431 11.2815 14.7957 9.66968 14.9225 8.67417C15.0494 7.71027 14.764 7.29949 13.7493 7.14135C13.4638 7.09395 13.1784 7.10975 12.9248 7.31514C12.5441 7.59968 12.5917 8.10525 12.4332 8.94275C12.1795 10.681 11.6404 12.5457 12.3856 13.1461C13.1943 13.794 13.6542 13.0039 13.9237 12.3718Z" fill="#1A3C40"/>
<path fill-rule="evenodd" clip-rule="evenodd" d="M16.0801 13.383C16.9046 12.0241 17.9193 9.65378 17.4119 8.86367C16.9838 8.2317 15.7787 7.89976 15.4139 8.91106C15.1286 9.70118 14.8749 10.9338 14.6688 11.6132C14.4309 12.3559 14.0821 13.3516 14.3833 13.8571C14.9225 14.7894 15.7153 13.9519 16.0801 13.383Z" fill="#1A3C40"/>
<path fill-rule="evenodd" clip-rule="evenodd" d="M47.0143 8.43719H48.9329L50.3123 4.50244H47.8389L47.0143 8.43719Z" fill="#1A3C40"/>
</svg>
