<svg width="64" height="64" viewBox="0 0 64 64" fill="none" xmlns="http://www.w3.org/2000/svg">
<path d="M42.5 11.5V6C42.5 4.89543 41.6046 4 40.5 4H6C4.89543 4 4 4.89543 4 6V58C4 59.1046 4.89543 60 6 60H40.5C41.6046 60 42.5 59.1046 42.5 58V35" stroke="#007B75" stroke-width="3"/>
<path d="M19.5 52.5L58.25 13.75C60.0449 11.9551 60.0449 9.04492 58.25 7.25V7.25C56.4551 5.45508 53.5449 5.45507 51.75 7.25L13 46M19.5 52.5L11.5 54.5L13 46M19.5 52.5L13 46" stroke="#007B75" stroke-width="3"/>
<path d="M46 13.5L52.5 20" stroke="#007B75" stroke-width="3"/>
<path d="M50 9.5L56.5 16" stroke="#007B75" stroke-width="3"/>
<line x1="10" y1="12" x2="31" y2="12" stroke="#007B75" stroke-width="3"/>
<path d="M10 18H35" stroke="#007B75" stroke-width="3"/>
<path d="M10 24H30" stroke="#007B75" stroke-width="3"/>
</svg>
