<svg width="16" height="14" viewBox="0 0 16 14" fill="none" xmlns="http://www.w3.org/2000/svg">
<path d="M0 14L1.13089 0H4.1466L6.0733 5.08902C6.40838 5.94758 6.72251 6.80613 7.01571 7.66469C7.3089 8.5094 7.51832 9.13947 7.64398 9.5549L7.83246 10.1988C8.26527 8.75865 8.86562 7.05539 9.63351 5.08902L11.6021 0H14.6178L16 14H13.3613L12.8586 8.53709L12.4817 3.63502C11.9791 5.06133 11.3787 6.69535 10.6806 8.53709L8.71204 13.7923H6.91099L4.98429 8.53709L3.32984 3.69733C3.32984 4.37587 3.23909 5.98912 3.05759 8.53709L2.63874 14H0Z" fill="#000"/>
</svg>
