<svg width="32" height="32" viewBox="0 0 32 32" fill="none" xmlns="http://www.w3.org/2000/svg">
<path d="M23.6696 6.62309C22.2405 6.62309 21.0901 5.43791 21.0901 4.04357V0H5.22956C4.74154 0 4.32324 0.418301 4.32324 0.906318V31.0937C4.32324 31.5817 4.74154 32 5.22956 32H26.8069C27.2949 32 27.6784 31.5817 27.6784 31.0937V6.62309H23.6696ZM11.8527 16.1394C11.4692 16.488 10.9115 16.6275 10.1097 16.6275H8.95941V18.4052C8.95941 19.451 7.70451 19.451 7.70451 18.4052V13.5948C7.70451 13.037 7.94851 12.8279 8.50625 12.8279C9.20342 12.8279 10.6675 12.793 11.2252 12.9325C12.759 13.3508 12.759 15.4074 11.8527 16.1394ZM18.7546 16.9412C18.5455 18.0218 17.8483 18.8235 16.7328 18.9978L14.3276 19.0675C13.6653 19.0675 13.5259 18.7887 13.5259 18.1612V13.5948C13.5259 13.037 13.7699 12.8279 14.2927 12.8279C15.0596 12.8279 16.3842 12.7582 17.0466 12.9325C18.65 13.3508 19.1032 15.3725 18.7546 16.9412ZM24.1228 13.6645C24.0182 13.7691 23.8788 13.8039 23.6696 13.8039H21.1947V15.4074H23.2862C24.0531 15.4074 24.0531 16.3486 23.2862 16.3486H21.1947V18.4052C21.1947 19.3115 20.393 19.3115 20.1141 18.9978C20.0095 18.8584 19.9398 18.6492 19.9398 18.4052V13.5948C19.9398 13.037 20.1838 12.8279 20.7067 12.8279H23.6696C24.3668 12.8279 24.3668 13.4553 24.1228 13.6645Z" fill="#fff"/>
<path d="M9.83044 13.769H8.99384V15.6863H8.95898C9.8653 15.6863 11.1899 15.8605 11.1899 14.7102C11.1899 13.9433 10.667 13.769 9.83044 13.769Z" fill="#fff"/>
<path d="M15.6178 13.8736H14.7812V18.0915C15.3041 18.0915 16.1756 18.1263 16.5939 17.9869C17.7791 17.5686 17.7094 15.268 17.291 14.5708C16.9076 13.9433 16.3499 13.8736 15.6178 13.8736Z" fill="#fff"/>
<path d="M23.6695 5.08934H26.5976L22.5889 1.08063V4.00873C22.5889 4.63618 23.0769 5.08934 23.6695 5.08934Z" fill="#fff"/>
</svg>
