<svg width="24" height="24" viewBox="0 0 24 24" fill="none" xmlns="http://www.w3.org/2000/svg">
<path d="M22.2651 6.29834C22.1884 6.68186 21.8816 7.33385 21.3446 8.21595C20.9611 8.86794 20.5009 9.59663 19.964 10.4404C19.5037 11.1307 19.2353 11.4759 19.2353 11.4759C19.0819 11.706 19.0051 11.8978 19.0051 12.0128C19.0051 12.1662 19.0819 12.3196 19.2353 12.4731L19.5804 12.8566C21.4213 14.7742 22.4569 16.0782 22.687 16.7685C22.7637 17.0753 22.7253 17.3438 22.5719 17.4972C22.4185 17.6506 22.2267 17.7273 21.9199 17.7273H19.6571C19.3503 17.7273 19.1202 17.6506 18.8901 17.4588C18.7367 17.3821 18.4299 17.1137 18.0463 16.6535C17.6628 16.1932 17.3176 15.8097 17.0108 15.5029C15.9753 14.5441 15.2083 14.0455 14.748 14.0455C14.5179 14.0455 14.3645 14.0839 14.2878 14.1606C14.2111 14.2373 14.1728 14.429 14.1728 14.6591C14.1344 14.8509 14.1344 15.2344 14.1344 15.8481V16.8452C14.1344 17.152 14.0577 17.3821 13.9043 17.4972C13.6742 17.6506 13.214 17.7273 12.5236 17.7273C11.2963 17.7273 10.1074 17.3821 8.88015 16.6535C7.65288 15.9631 6.57901 14.9276 5.65856 13.5853C4.77646 12.4347 4.04776 11.2458 3.47248 10.0185C3.01225 9.09806 2.62873 8.25431 2.36026 7.44891C2.1685 6.83527 2.0918 6.37504 2.0918 6.10658C2.0918 5.6847 2.32191 5.45459 2.85884 5.45459H5.12163C5.39009 5.45459 5.58185 5.53129 5.73526 5.64635C5.88867 5.79976 6.00373 6.02987 6.11879 6.33669C6.46396 7.3722 6.88583 8.36936 7.42276 9.32817C7.88299 10.2486 8.34322 10.9773 8.80344 11.5142C9.26367 12.0895 9.60884 12.358 9.87731 12.358C10.0307 12.358 10.1074 12.3196 10.1841 12.2046C10.2608 12.0895 10.2992 11.8594 10.2992 11.5142V8.1776C10.2608 7.79408 10.1841 7.41056 10.0307 7.10374C9.95401 6.95033 9.8006 6.75857 9.64719 6.52845C9.45543 6.29834 9.37873 6.14493 9.37873 5.99152C9.37873 5.83811 9.41708 5.72306 9.53214 5.608C9.64719 5.53129 9.8006 5.45459 9.95401 5.45459H13.5208C13.7509 5.45459 13.9043 5.53129 13.981 5.64635C14.0577 5.79976 14.1344 5.99152 14.1344 6.29834V10.7472C14.1344 10.9773 14.1728 11.1691 14.2495 11.2458C14.3262 11.3608 14.4029 11.3992 14.5179 11.3992C14.633 11.3992 14.7864 11.3608 14.9398 11.2841C15.0932 11.2074 15.285 11.0157 15.5534 10.7089C16.0137 10.1719 16.5122 9.51993 17.0108 8.71453C17.3176 8.1776 17.6628 7.56396 17.9696 6.87362L18.3532 6.10658C18.5066 5.6847 18.8517 5.45459 19.312 5.45459H21.5747C22.1884 5.45459 22.4185 5.76141 22.2651 6.29834Z" fill="#fff"/>
</svg>
