<svg width="1091" height="650" viewBox="0 0 1091 650" fill="none" xmlns="http://www.w3.org/2000/svg">
<path d="M11 392.227L212.525 508.568L327.077 574.698L444.81 506.731L565.018 576.127L603.556 553.879L323.895 392.431L285.357 414.679L400.616 481.217L322.304 526.427L207.045 459.888L50.4212 369.469" stroke="#EEEEEE" stroke-width="25"/>
<path d="M1040.19 313.238L909.733 237.923L791.999 305.89L632.547 213.838L671.968 191.08L787.227 257.619L865.539 212.409L750.28 145.871L789.525 123.215L1025.7 259.558L1079.44 290.582" stroke="#EEEEEE" stroke-width="25"/>
<path d="M595.072 236.29L363.141 370.184L643.155 531.836L875.086 397.942L595.072 236.29Z" stroke="#EEEEEE" stroke-width="25"/>
<path d="M598.606 284.867L445.871 373.041L638.204 484.075L790.939 395.901L598.606 284.867Z" stroke="#EEEEEE" stroke-width="25"/>
<path d="M468.5 339L599.499 264V297L468.5 372V339Z" fill="#395454"/>
<path d="M385 336L594.999 215V248L385 369V336Z" fill="#395454"/>
<path d="M646 185L672.5 169.5V202.5L646 218V185Z" fill="#395454"/>
<path d="M763 114.5L789.5 99V132L763 147.5V114.5Z" fill="#395454"/>
<path d="M792 285L909.5 217.5V250.5L792 318V285Z" fill="#395454"/>
<path d="M40 342L367 531V564L40 375V342Z" fill="#477776"/>
<path d="M300.5 384.5L323.999 372V405L300.5 417.5V384.5Z" fill="#395454"/>
<path d="M264.5 382L565 555.5V588.659L264.5 415V382Z" fill="#477776"/>
<path d="M341.5 337L643 511V544.159L341.5 370V337Z" fill="#477776"/>
<path d="M425 340L638.5 463.5V496.659L425 373V340Z" fill="#477776"/>
<path d="M595 215L853.5 364.841V398L595 248V215Z" fill="#477776"/>
<path d="M672 170L788.5 236.5V269.659L672 203V170Z" fill="#477776"/>
<path d="M789 102L1068.5 263.5V296.659L789 135V102Z" fill="#477776"/>
<path d="M909.5 217L1029.5 286.5V319.659L909.5 250.5V217Z" fill="#477776"/>
<path d="M599.5 264L769.5 362.841V396L599.5 297V264Z" fill="#477776"/>
<path d="M327 554L444.5 486.5V519.5L327 587V554Z" fill="#395454"/>
<path d="M611 181L792 285.341V318.5L611 214V181Z" fill="#477776"/>
<path d="M729 113L843.5 179.341V212.5L729 146V113Z" fill="#477776"/>
<path d="M323 370L583 521.5V554.659L323 403V370Z" fill="#477776"/>
<path d="M643 511L896.5 365V398L643 544V511Z" fill="#395454"/>
<path d="M638.5 463.5L811.5 363V396L638.5 496.5V463.5Z" fill="#395454"/>
<path d="M787 237L887 179V212L787 270V237Z" fill="#395454"/>
<path d="M322 506L422 448.5V481.5L322 539V506Z" fill="#395454"/>
<path d="M565 555.5L625.5 520.5V553.5L565 588.5V555.5Z" fill="#395454"/>
<path d="M11 359.227L212.525 475.568L327.077 541.698L444.81 473.731L565.018 543.127L603.556 520.879L323.895 359.431L285.357 381.679L400.616 448.217L322.304 493.427L207.045 426.888L50.4212 336.469" stroke="#66D8D2" stroke-width="25"/>
<path d="M1040.19 280.238L909.733 204.923L791.999 272.89L632.547 180.838L671.968 158.08L787.227 224.619L865.539 179.409L750.28 112.871L789.525 90.2149L1025.7 226.558L1079.44 257.582" stroke="#66D8D2" stroke-width="25"/>
<path d="M595.072 203.29L363.141 337.184L643.155 498.836L875.086 364.942L595.072 203.29Z" stroke="#66D8D2" stroke-width="25"/>
<path d="M598.606 251.867L445.871 340.041L638.204 451.075L790.939 362.901L598.606 251.867Z" stroke="#66D8D2" stroke-width="25"/>
<path d="M0 365L327 554V587L0 398V365Z" fill="#477776"/>
<path d="M1029 286.5L1051 274V307L1029 319.5V286.5Z" fill="#395454"/>
<path d="M1068 263.5L1090 251V284L1068 296.5V263.5Z" fill="#395454"/>
</svg>
