<svg width="594" height="391" viewBox="0 0 594 391" fill="none" xmlns="http://www.w3.org/2000/svg">
<path d="M262.028 0.646973L238.367 15.0362L569.656 216.414L593.317 202.032L262.028 0.646973Z" fill="#66D8D2"/>
<path d="M238.367 15.0361V43.7499L569.656 245.185V216.414L238.367 15.0361Z" fill="#395454"/>
<path d="M593.317 202.032L569.656 216.414V245.185L593.317 230.796V202.032Z" fill="#477776"/>
<path d="M377.319 160.545V189.259L495.638 261.234V232.47L377.319 160.545Z" fill="#395454"/>
<path d="M519.299 218.088L495.638 232.47V261.234L519.299 246.852V218.088Z" fill="#477776"/>
<path d="M400.98 146.163L377.319 160.545L495.637 232.47L519.465 218.247L400.98 146.163Z" fill="#66D8D2"/>
<path d="M377.303 160.563L258.991 232.459L282.652 246.841L400.971 174.945L377.303 160.563Z" fill="#66D8D2"/>
<path d="M258.992 232.459V261.173L282.653 275.612V246.841L258.992 232.459Z" fill="#395454"/>
<path d="M400.972 174.945L282.653 246.841V275.612L400.972 203.709V174.945Z" fill="#477776"/>
<path d="M235.327 246.343V275.057L353.64 346.974V318.21L235.327 246.343Z" fill="#395454"/>
<path d="M377.307 303.821L353.64 318.21V346.974L377.307 332.592V303.821Z" fill="#477776"/>
<path d="M258.989 231.961L235.328 246.343L377.597 333.094L401.265 318.705L258.989 231.961Z" fill="#66D8D2"/>
<path d="M377.825 304.276L330.496 333.04L354.157 347.429L401.486 318.658L377.825 304.276Z" fill="#66D8D2"/>
<path d="M330.497 333.04V361.754L354.158 376.194V347.43L330.497 333.04Z" fill="#395454"/>
<path d="M401.487 318.658L354.158 347.429V376.194L401.487 347.429V318.658Z" fill="#477776"/>
<path d="M238.787 15.0361L0.681671 160.338L24.3495 174.727L262.455 29.4182L238.787 15.0361Z" fill="#66D8D2"/>
<path d="M0.652828 160.406V189.12L24.3207 203.559V174.795L0.652828 160.406Z" fill="#395454"/>
<path d="M262.455 29.4182L25.8107 173.153V201.917L262.455 58.1895V29.4182Z" fill="#477776"/>
<path d="M546.368 202.028L495.63 232.47L519.298 246.852L569.693 216.374L546.368 202.028Z" fill="#66D8D2"/>
<path d="M495.631 232.47V261.184L519.299 275.623V246.852L495.631 232.47Z" fill="#395454"/>
<path d="M569.668 216.406L519.299 246.852V275.623L569.668 245.141V216.406Z" fill="#477776"/>
<path d="M47.1543 159.74L23.4865 174.123L331.948 361.698L355.609 347.316L47.1543 159.74Z" fill="#66D8D2"/>
<path d="M24.3206 174.702V203.416L331.571 390.586V361.814L24.3206 174.702Z" fill="#395454"/>
<path d="M354.99 347.247L331.329 361.629V390.401L354.99 376.019V347.247Z" fill="#477776"/>
<path d="M262.193 58.9104L238.532 73.2925L356.85 145.217L380.511 130.828L262.193 58.9104Z" fill="#66D8D2"/>
<path d="M238.532 73.2925V102.006L356.85 173.981V145.217L238.532 73.2925Z" fill="#395454"/>
<path d="M380.511 130.828L356.85 145.217V173.981L380.511 159.599V130.828Z" fill="#477776"/>
<path d="M238.794 73.2925L120.475 145.181L144.136 159.563L262.455 87.6745L238.794 73.2925Z" fill="#66D8D2"/>
<path d="M120.475 145.181V173.895L144.136 188.335V159.563L120.475 145.181Z" fill="#395454"/>
<path d="M262.455 87.6746L144.136 159.563V188.335L262.455 116.446V87.6746Z" fill="#477776"/>
<path d="M333.182 130.854L214.87 202.52L238.531 216.902L356.849 145.244L333.182 130.854Z" fill="#66D8D2"/>
<path d="M214.87 202.521V231.227L238.531 245.674V216.903L214.87 202.521Z" fill="#395454"/>
<path d="M356.85 145.244L238.532 216.902V245.674L356.85 174.008V145.244Z" fill="#477776"/>
<path d="M120.212 145.014L96.5514 159.396L214.863 231.263L238.531 216.881L120.212 145.014Z" fill="#66D8D2"/>
<path d="M96.5518 159.396V188.11L214.864 260.027V231.263L96.5518 159.396Z" fill="#395454"/>
<path d="M238.532 216.881L214.864 231.263V260.027L238.532 245.645V216.881Z" fill="#477776"/>
</svg>
