<svg width="1160" height="734" viewBox="0 0 1160 734" fill="none" xmlns="http://www.w3.org/2000/svg">
<path d="M639.178 0.568848L0.30304 388.949L23.9641 403.331L662.839 14.9581L639.178 0.568848Z" fill="#66D8D2"/>
<path d="M0.303112 388.949V417.656L23.9642 432.095V403.331L0.303112 388.949Z" fill="#395454"/>
<path d="M662.839 14.958L23.9641 403.331V432.095L662.839 43.7221V14.958Z" fill="#477776"/>
<path d="M662.674 14.958L639.013 29.3401L1112.32 316.816L1135.98 302.427L662.674 14.958Z" fill="#66D8D2"/>
<path d="M639.013 29.3401V58.0539L1112.32 345.58V316.816L639.013 29.3401Z" fill="#395454"/>
<path d="M1135.98 302.427L1112.32 316.816V345.58L1135.98 331.198V302.427Z" fill="#477776"/>
<path d="M48.5227 388.947L24.8617 403.329L498.171 690.804L521.832 676.415L48.5227 388.947Z" fill="#66D8D2"/>
<path d="M24.8617 403.329V432.042L498.171 719.568V690.804L24.8617 403.329Z" fill="#395454"/>
<path d="M521.832 676.415L498.171 690.804V719.568L521.832 705.186V676.415Z" fill="#477776"/>
<path d="M1135.97 302.013L1088.64 330.785L1112.31 345.167L1159.63 316.395L1135.97 302.013Z" fill="#66D8D2"/>
<path d="M1088.64 330.785V359.491L1112.31 373.938V345.167L1088.64 330.785Z" fill="#395454"/>
<path d="M1159.63 316.396L1112.31 345.167V373.938L1159.63 345.167V316.396Z" fill="#477776"/>
<path d="M638.997 57.7278L615.336 72.1098L1088.65 359.586L1112.31 345.196L638.997 57.7278Z" fill="#66D8D2"/>
<path d="M615.336 72.1099V100.824L1088.65 388.35V359.586L615.336 72.1099Z" fill="#395454"/>
<path d="M1112.31 345.196L1088.65 359.586V388.35L1112.31 373.968V345.196Z" fill="#477776"/>
<path d="M615.352 72.0811L94.7755 388.551L118.437 402.94L639.013 86.4703L615.352 72.0811Z" fill="#66D8D2"/>
<path d="M94.7754 388.551V417.265L118.436 431.704V402.94L94.7754 388.551Z" fill="#395454"/>
<path d="M639.013 86.4702L118.437 402.94V431.704L639.013 115.234V86.4702Z" fill="#477776"/>
<path d="M119.506 374.539L95.8448 388.921L569.154 676.396L592.815 662.007L119.506 374.539Z" fill="#66D8D2"/>
<path d="M95.8448 388.921V417.634L569.154 705.16V676.396L95.8448 388.921Z" fill="#395454"/>
<path d="M592.815 662.007L569.154 676.396V705.16L592.815 690.778V662.007Z" fill="#477776"/>
<path d="M545.493 662.007L498.164 690.778L521.832 705.16L569.154 676.389L545.493 662.007Z" fill="#66D8D2"/>
<path d="M498.165 690.778V719.492L521.832 733.932V705.16L498.165 690.778Z" fill="#395454"/>
<path d="M569.154 676.389L521.832 705.16V733.932L569.154 705.16V676.389Z" fill="#477776"/>
</svg>
