<svg width="877" height="562" viewBox="0 0 877 562" fill="none" xmlns="http://www.w3.org/2000/svg">
<path d="M450.235 0.833496L402.906 29.6048L426.567 43.9868L473.896 15.2155L450.235 0.833496Z" fill="#66D8D2"/>
<path d="M402.906 29.6047V58.3113L426.568 72.7509V43.9868L402.906 29.6047Z" fill="#395454"/>
<path d="M473.896 15.2156L426.568 43.9869V72.751L473.896 43.9869V15.2156Z" fill="#477776"/>
<path d="M473.893 14.8157L450.232 29.1977L852.531 273.65L876.192 259.26L473.893 14.8157Z" fill="#66D8D2"/>
<path d="M450.232 29.1978V57.9116L852.531 302.414V273.65L450.232 29.1978Z" fill="#395454"/>
<path d="M876.192 259.26L852.531 273.65V302.414L876.192 288.032V259.26Z" fill="#477776"/>
<path d="M403.568 29.7571L379.907 44.1391L734.856 259.906L758.524 245.517L403.568 29.7571Z" fill="#66D8D2"/>
<path d="M379.907 44.1392V72.853L734.857 288.67V259.906L379.907 44.1392Z" fill="#395454"/>
<path d="M758.525 245.517L734.857 259.906V288.67L758.525 274.288V245.517Z" fill="#477776"/>
<path d="M615.731 331.622V360.336L639.399 374.775V346.011L615.731 331.622Z" fill="#395454"/>
<path d="M781.379 259.705L613.579 361.182V389.946L781.379 288.469V259.705Z" fill="#477776"/>
<path d="M757.718 245.315L613.705 332.378L637.373 346.767L781.379 259.705L757.718 245.315Z" fill="#66D8D2"/>
<path d="M495.433 260.408L471.772 274.79L613.752 361.068L637.42 346.686L495.433 260.408Z" fill="#66D8D2"/>
<path d="M471.772 274.79V303.504L613.752 389.839V361.068L471.772 274.79Z" fill="#395454"/>
<path d="M637.42 346.686L613.752 361.068V389.839L637.42 375.45V346.686Z" fill="#477776"/>
<path d="M471.772 274.79L448.104 289.193L471.772 303.575L495.433 289.179L471.772 274.79Z" fill="#66D8D2"/>
<path d="M448.104 289.193V317.907L471.772 332.346V303.575L448.104 289.193Z" fill="#395454"/>
<path d="M495.433 289.179L471.772 303.575V332.346L495.433 317.943V289.179Z" fill="#477776"/>
<path d="M448.111 289.061L424.443 303.45L566.423 389.757L590.091 375.367L448.111 289.061Z" fill="#66D8D2"/>
<path d="M424.443 303.45V332.164L566.423 418.521V389.757L424.443 303.45Z" fill="#395454"/>
<path d="M590.091 375.367L566.423 389.757V418.521L590.091 404.139V375.367Z" fill="#477776"/>
<path d="M545.548 373.812L403.568 460.118L427.229 474.501L569.216 388.194L545.548 373.812Z" fill="#66D8D2"/>
<path d="M403.568 460.118V488.825L427.236 503.265L427.229 474.5L403.568 460.118Z" fill="#395454"/>
<path d="M569.216 388.194L427.229 474.501L427.236 503.265L569.216 416.965V388.194Z" fill="#477776"/>
<path d="M95.1127 245.315L71.4516 259.697L426.401 475.464L450.069 461.075L95.1127 245.315Z" fill="#66D8D2"/>
<path d="M71.4521 259.698V288.411L426.402 504.228V475.464L71.4521 259.698Z" fill="#395454"/>
<path d="M450.07 460.689L426.402 475.464V504.228L450.07 489.355V460.689Z" fill="#477776"/>
<path d="M71.5802 230.898L0.462044 274.086L24.123 288.468L95.2412 245.287L71.5802 230.898Z" fill="#66D8D2"/>
<path d="M0.462273 274.086V302.8L24.1233 317.24V288.468L0.462273 274.086Z" fill="#395454"/>
<path d="M71.4521 259.704L24.1232 288.468V317.24L71.4521 288.468V259.704Z" fill="#477776"/>
<path d="M839.905 252.616L413.959 511.529L437.62 525.911L863.566 266.998L839.905 252.616Z" fill="#66D8D2"/>
<path d="M413.959 511.529V540.243L437.62 554.682V525.911L413.959 511.529Z" fill="#395454"/>
<path d="M863.566 266.998L437.62 525.911V554.682L863.566 295.77V266.998Z" fill="#477776"/>
<path d="M47.7702 273.967L24.1093 288.356L426.408 532.801L450.069 518.419L47.7702 273.967Z" fill="#66D8D2"/>
<path d="M24.1094 288.356V317.063L426.408 561.572V532.801L24.1094 288.356Z" fill="#395454"/>
<path d="M450.07 518.418L426.409 532.801V561.572L450.07 547.19V518.418Z" fill="#477776"/>
</svg>
